<svg id="Layer_1" data-name="Layer 1" xmlns="http://www.w3.org/2000/svg" viewBox="0 0 100 100">
  <g>
    <circle cx="50" cy="50" r="50" fill="#4bfd9f"/>
    <path d="M81,67,69.71,60.23V39.34a.57.57,0,0,0,0-.18s0,0,0,0l0-.12s0,0,0,0a.41.41,0,0,0-.1-.14l-.13-.1,0,0L50.74,28.16V14.7L81,32.14ZM50,85.7,19.74,68.25l11.31-6.77L49.65,72l0,0,.12,0,0,0h.33l0,0,.12,0,0,0,14.5-8.21a.73.73,0,1,0-.73-1.27L50.72,70.15V50.51l17.53-9.92v20a.76.76,0,0,0,.36.63l11.68,7ZM19,32.13,49.28,14.7V28.17L35.64,35.89a.72.72,0,0,0-.27,1,.72.72,0,0,0,1,.27L50,29.42l17.49,9.91L50,49.25,31.4,38.7l0,0-.08,0a.07.07,0,0,0-.06,0h-.37l-.06,0-.08,0s0,0-.06,0,0,0-.06,0a.11.11,0,0,1-.05,0l-.06,0-.05,0,0,.06h0a0,0,0,0,1,0,0s0,0,0,.08,0,0,0,0,0,.05,0,.08a.25.25,0,0,1,0,.08V55.91a.73.73,0,0,0,1.46,0V40.59l17.52,9.92V70.14L31.4,60a.71.71,0,0,0-.73,0L19,67V32.13Zm63.06-1.05L50.38,12.8h0a.28.28,0,0,0-.12,0l0,0a1.13,1.13,0,0,0-.18,0h0l-.17,0h0l-.12,0s0,0,0,0L17.93,31.08a.74.74,0,0,0-.37.62V68.3s0,.09,0,.13a.06.06,0,0,0,0,0,.42.42,0,0,0,.06.14s0,0,0,0a.63.63,0,0,0,.11.13l0,0,.1.09s0,0,0,0L49.63,87.19a.83.83,0,0,0,.37.11.65.65,0,0,0,.38-.11l31.7-18.28h0l0,0,.09-.07a.47.47,0,0,0,.06-.09l0-.06s0,0,0,0a.38.38,0,0,0,.06-.13s0,0,0,0a.57.57,0,0,0,0-.13V31.7a.67.67,0,0,0-.36-.62Z" fill="#191919"/>
  </g>
</svg>
