<svg id="Layer_1" data-name="Layer 1" xmlns="http://www.w3.org/2000/svg" viewBox="0 0 100 100">
  <circle cx="50" cy="50" r="50" fill="#4bfd9f"/>
  <g>
    <path d="M38,31.35a1.49,1.49,0,0,0-2.12,0L18.28,48.94a1.49,1.49,0,0,0,0,2.12L35.87,68.65a1.47,1.47,0,0,0,1.06.44A1.53,1.53,0,0,0,38,68.65a1.51,1.51,0,0,0,0-2.12L21.46,50,38,33.47a1.49,1.49,0,0,0,0-2.12Z" fill="#191919"/>
    <path d="M62,68.65a1.49,1.49,0,0,0,1.06.44,1.51,1.51,0,0,0,1.06-.44L81.72,51.06a1.49,1.49,0,0,0,0-2.12L64.13,31.35A1.5,1.5,0,1,0,62,33.47L78.54,50,62,66.53a1.49,1.49,0,0,0,0,2.12Z" fill="#191919"/>
    <path d="M43.44,69.09a1.5,1.5,0,0,0,1.4-1L58.41,32.94a1.5,1.5,0,0,0-2.8-1.07L42,67.05a1.5,1.5,0,0,0,1.4,2Z" fill="#191919"/>
  </g>
</svg>
