<svg id="Layer_1" data-name="Layer 1" xmlns="http://www.w3.org/2000/svg" viewBox="0 0 100 100">
  <circle cx="50" cy="50" r="50" fill="#4bfd9f"/>
  <path d="M57.67,47.49Zm2.58,2.14.47,5.45a2.35,2.35,0,0,1-2.13,2.57l-1.71.17a19.27,19.27,0,0,1-1.48,4.79l1.33,1.1A2.35,2.35,0,0,1,57,67h0l-3.49,4.22a2.44,2.44,0,0,1-3.34.31h0L48.9,70.48a20.27,20.27,0,0,1-4.44,2.34l.16,1.71A2.36,2.36,0,0,1,42.5,77.1L37,77.62a2.38,2.38,0,0,1-2.57-2.14l-.14-1.68a19.21,19.21,0,0,1-4.8-1.48l-1.1,1.33a2.43,2.43,0,0,1-3.34.26h0l-4.22-3.49a2.36,2.36,0,0,1-.32-3.33l1.1-1.32a19.42,19.42,0,0,1-2.34-4.44l-1.71.16A2.37,2.37,0,0,1,15,59.36h0l-.51-5.45a2.37,2.37,0,0,1,2.14-2.58l1.72-.17a19.19,19.19,0,0,1,1.47-4.8l-1.32-1.1a2.36,2.36,0,0,1-.84-2,2.46,2.46,0,0,1,.58-1.34l3.45-4.12A2.37,2.37,0,0,1,25,37.44l1.33,1.09a19.83,19.83,0,0,1,4.44-2.34h0l-.16-1.71a2.36,2.36,0,0,1,.52-1.74,2.32,2.32,0,0,1,1.61-.85h0l5.45-.51a2.36,2.36,0,0,1,2.58,2.13L41,35.22a19.21,19.21,0,0,1,4.8,1.48l1.1-1.32a2.38,2.38,0,0,1,3.33-.32l4.22,3.5a2.37,2.37,0,0,1,.84,2A2.45,2.45,0,0,1,54.67,42h0l-1.05,1.26A19.67,19.67,0,0,1,56,47.66l1.7-.17A2.38,2.38,0,0,1,60.25,49.63Zm-1.16,5.65-.52-5.46a.61.61,0,0,0-.24-.45.64.64,0,0,0-.49-.15l-3.05.28-.21-.63a17.93,17.93,0,0,0-2.71-5.18l-.41-.54L53.4,40.8a.68.68,0,0,0,.16-.49.68.68,0,0,0-.25-.45h0L49.1,36.37a.65.65,0,0,0-.93.09l-2,2.34-.61-.3a18,18,0,0,0-5.55-1.71h0l-.68-.09-.19-3.05A.61.61,0,0,0,39,33.2a.65.65,0,0,0-.5-.15L33,33.57a.61.61,0,0,0-.45.24.64.64,0,0,0-.15.49l.28,3-.63.21a17.6,17.6,0,0,0-5.18,2.72l-.54.4L24,38.73a.68.68,0,0,0-.49-.15.65.65,0,0,0-.45.24L19.52,43a.68.68,0,0,0,.09.94L22,45.91l-.3.59A17.66,17.66,0,0,0,20,52l-.1.69-3,.28a.64.64,0,0,0-.46.24.69.69,0,0,0-.14.5l.51,5.46a.63.63,0,0,0,.24.45.69.69,0,0,0,.5.14l3-.31.22.63a17.69,17.69,0,0,0,2.71,5.18l.4.53L21.9,68.18a.67.67,0,0,0,.05.92h0l4.21,3.5a.73.73,0,0,0,.49.15.69.69,0,0,0,.45-.24l1.95-2.35.6.3a17.72,17.72,0,0,0,5.55,1.71l.7.12.28,3a.66.66,0,0,0,.25.45.64.64,0,0,0,.49.15h0l5.46-.51a.68.68,0,0,0,.45-.25.67.67,0,0,0,.15-.49l-.28-3,.63-.21a17.86,17.86,0,0,0,5.12-2.71h0l.53-.41,2.36,2a.66.66,0,0,0,.93-.09L55.76,66a.65.65,0,0,0,.15-.48.67.67,0,0,0-.24-.45h0l-2.35-1.95.3-.6a17.54,17.54,0,0,0,1.71-5.55l.1-.67,3-.29h0A.68.68,0,0,0,59.09,55.28ZM45,49a.89.89,0,0,0-1.28,0,.91.91,0,0,0,0,1.29l4.26,4.25-4.26,4.26h0a.91.91,0,0,0,.64,1.55A.87.87,0,0,0,45,60l4.87-4.86a1,1,0,0,0,0-1.34Zm-13.09.64A.91.91,0,0,0,31.6,49h0a.89.89,0,0,0-1.28,0l-4.87,4.87a1,1,0,0,0,0,1.34L30.32,60a.87.87,0,0,0,.64.27.91.91,0,0,0,.64-1.55l-4.26-4.26,4.26-4.26h0A.93.93,0,0,0,31.87,49.59Zm8.54-3.19h0a.91.91,0,0,0-1.15.56l-5,14.47a.91.91,0,0,0,.57,1.13.74.74,0,0,0,.29,0A.89.89,0,0,0,36,62l5-14.47A.9.9,0,0,0,40.41,46.4Zm45-6.58-1,3.3a1.74,1.74,0,0,1-.85,1,1.76,1.76,0,0,1-1.33.11h0L81.35,44a12.45,12.45,0,0,1-1.82,2.21h0l.41.78a1.83,1.83,0,0,1,.12,1.34,1.77,1.77,0,0,1-.86,1L76.14,51a1.8,1.8,0,0,1-2.36-.74h0l-.41-.78a13.52,13.52,0,0,1-2.84.25h0l-.26.85a1.79,1.79,0,0,1-1.67,1.22,1.82,1.82,0,0,1-.52-.08h0l-3.3-1a1.76,1.76,0,0,1-1.14-2.22l.26-.85a12.45,12.45,0,0,1-2.21-1.82l-.79.41a1.78,1.78,0,0,1-2.35-.74h0l-1.61-3.06A1.76,1.76,0,0,1,57.68,40h0l.79-.41a12.26,12.26,0,0,1-.26-2.84h0l-.85-.26a1.75,1.75,0,0,1-1-.87,1.81,1.81,0,0,1-.11-1.35l1-3.3a1.74,1.74,0,0,1,.87-1,1.72,1.72,0,0,1,1.35-.11l.85.26a12.24,12.24,0,0,1,1.83-2.17h0l-.41-.8a1.76,1.76,0,0,1,0-1.64,1.79,1.79,0,0,1,.74-.73l3-1.58a1.81,1.81,0,0,1,1.33-.12,1.71,1.71,0,0,1,1,.86l.42.79A12.22,12.22,0,0,1,71,24.46h0l.26-.85a1.75,1.75,0,0,1,2.22-1.15h0l3.29,1a1.68,1.68,0,0,1,1,.85A1.71,1.71,0,0,1,78,25.68l-.27.85a13,13,0,0,1,2.22,1.83l.78-.41A1.71,1.71,0,0,1,82,27.83a1.75,1.75,0,0,1,1,.83h0l1.6,3.06a1.72,1.72,0,0,1,0,1.62,1.76,1.76,0,0,1-.74.74l-.73.39a12.48,12.48,0,0,1,.25,2.86l.84.27h0a1.73,1.73,0,0,1,1.19,2.21Zm-1.57-.63a.34.34,0,0,0-.09-.08l-2-.63.05-.63a11,11,0,0,0-.34-3.56h0l-.16-.61,1.89-1a.14.14,0,0,0,.08-.09.15.15,0,0,0,0-.13l-1.58-3.08a.16.16,0,0,0-.1-.08.13.13,0,0,0-.12,0l-1.89,1-.41-.48a10.63,10.63,0,0,0-2.75-2.29l-.53-.32.65-2a.16.16,0,0,0-.11-.21h0L73.1,24a.18.18,0,0,0-.21.12l-.64,2-.63-.05a10.72,10.72,0,0,0-3.56.32h0l-.61.16-1-1.89a.18.18,0,0,0-.23-.07l-3.08,1.6a.14.14,0,0,0-.08.09.2.2,0,0,0,0,.13h0l1,1.88-.47.42a10.91,10.91,0,0,0-2.29,2.73L61,32l-2-.63a.15.15,0,0,0-.13,0,.18.18,0,0,0-.08.09h0l-1,3.31a.15.15,0,0,0,.1.19l2,.64,0,.63a11,11,0,0,0,.32,3.57l.15.6-1.88,1a.16.16,0,0,0-.08.1.17.17,0,0,0,0,.12l1.6,3a.16.16,0,0,0,.23.06h0l1.88-1,.41.47a10.87,10.87,0,0,0,2.75,2.3l.54.32-.64,2a.2.2,0,0,0,0,.13.16.16,0,0,0,.1.08l3.3,1a.13.13,0,0,0,.12,0,.2.2,0,0,0,.09-.09l.62-2L70,48a11,11,0,0,0,3.57-.32h0l.61-.15,1,1.88a.18.18,0,0,0,.23.07l3-1.6a.16.16,0,0,0,.08-.1.13.13,0,0,0,0-.12h0l-1-1.89.48-.41h0a10.93,10.93,0,0,0,2.3-2.77l.32-.53,2,.64a.15.15,0,0,0,.2-.11l1-3.29A.15.15,0,0,0,83.84,39.19Zm-8.73-5.25a.65.65,0,0,0-.88,0,.67.67,0,0,0-.18.44.58.58,0,0,0,.18.43L76.44,37l-2.21,2.22a.64.64,0,0,0-.18.43.59.59,0,0,0,.38.58.62.62,0,0,0,.68-.14l2.64-2.64a.65.65,0,0,0,.18-.46.59.59,0,0,0-.18-.45Zm-7.59.44a.61.61,0,0,0-.19-.44.63.63,0,0,0-.87,0l-2.65,2.65a.63.63,0,0,0,0,.9l2.65,2.64h0a.61.61,0,0,0,.44.19.65.65,0,0,0,.62-.62.61.61,0,0,0-.19-.44L65.12,37l2.21-2.21A.6.6,0,0,0,67.52,34.38Zm4.81-1.86h0a.57.57,0,0,0-.78.36l-2.7,7.88a.79.79,0,0,0,0,.48.63.63,0,0,0,.37.31.67.67,0,0,0,.2,0,.61.61,0,0,0,.58-.41l2.69-7.85h0a.55.55,0,0,0,0-.47A.61.61,0,0,0,72.33,32.52Z" fill="#191919"/>
</svg>
