<svg id="Layer_1" data-name="Layer 1" xmlns="http://www.w3.org/2000/svg" viewBox="0 0 100 100">
  <circle cx="50" cy="50" r="50" fill="#4bfd9f"/>
  <g>
    <path d="M28.28,23.44a5,5,0,0,1,3.6,1.49l1.36,1.36L26,33.49l-1.36-1.36a5.09,5.09,0,0,1,3.6-8.69Zm7.81,5.69-7.2,7.2-1.51-1.5,7.2-7.2ZM25.37,35.5,38.66,48.79,40,47.45l-9.77-9.77,1.5-1.51,9.78,9.77,1.34-1.34-9.77-9.77,1.5-1.51,9.77,9.77,1.35-1.34L35.93,32l1.5-1.5,9.77,9.77,1.34-1.35L35.25,25.61l-2-2a7,7,0,1,0-9.89,9.88Z" fill="#191919"/>
    <path d="M73.63,75.91l2-2,.45,2.49ZM67.8,74.85l.75-3h2.11a1,1,0,0,0,.67-.28.93.93,0,0,0,.28-.67V68.79l3-.74.65,3.55-3.9,3.9Zm9.5,3.65a1,1,0,0,0,.94-1.12l-1.9-10.45a1,1,0,0,0-.27-.5L60.89,51.24l-1.35,1.35L73.36,66.4,71,67,58,54.09l-1.35,1.35,13,13V70H68.2l-13-13-1.34,1.34L66.76,71.19l-.61,2.41L52.34,59.79,51,61.13,66.19,76.32a.87.87,0,0,0,.5.26l10.44,1.9.17,0Z" fill="#191919"/>
    <path d="M59.66,35.62l4.52,4.51a3.8,3.8,0,0,0,5.37,0l6.71-6.71a11.1,11.1,0,0,1-.84,5.83,11.51,11.51,0,0,1-6,6,11.12,11.12,0,0,1-7.5.5A1,1,0,0,0,61,46L32,75a5.28,5.28,0,0,1-2.8,1.53,5.1,5.1,0,0,1-5.93-5.93,5.28,5.28,0,0,1,1.53-2.8l29-29A1,1,0,0,0,54,37.9a11.07,11.07,0,0,1,.5-7.5,11.47,11.47,0,0,1,6-6,11,11,0,0,1,5.84-.84l-6.72,6.72a3.8,3.8,0,0,0,0,5.36Zm9.3-12A1,1,0,0,0,68.55,22a13,13,0,0,0-8.76.58,13.46,13.46,0,0,0-7,7A12.94,12.94,0,0,0,52,37.87L23.45,66.45a7.14,7.14,0,0,0-2.05,3.81,7,7,0,0,0,6.87,8.24,7.66,7.66,0,0,0,1.26-.11,7.14,7.14,0,0,0,3.81-2L61.92,47.76A12.93,12.93,0,0,0,70.13,47a13.44,13.44,0,0,0,7.05-7,13,13,0,0,0,.57-8.76.94.94,0,0,0-1.58-.41l-8,8h0a1.91,1.91,0,0,1-2.69,0L61,34.27a1.9,1.9,0,0,1,0-2.68Z" fill="#191919"/>
    <path d="M28.41,72.8a1.42,1.42,0,0,1-1-2.43A1.41,1.41,0,0,1,29,70.06a1.42,1.42,0,0,1-.55,2.74Zm0-4.75a3.35,3.35,0,1,0,2.35,1,3.33,3.33,0,0,0-2.35-1Z" fill="#191919"/>
    <path d="M56.22,45.07,35.34,66a1.07,1.07,0,0,1-1.51-1.51L54.72,43.57a1.06,1.06,0,0,1,1.5,1.5Zm-2.85-2.84L32.49,63.11a3,3,0,0,0,4.19,4.19L57.56,46.42a3,3,0,0,0-4.19-4.19Z" fill="#191919"/>
  </g>
</svg>
