<svg id="Layer_1" data-name="Layer 1" xmlns="http://www.w3.org/2000/svg" viewBox="0 0 100 100">
  <g>
    <circle cx="50" cy="50" r="50" fill="#4bfd9f"/>
    <path d="M63,62.34l-1.3-5.17,6.93-1.85,6.68,19.31L61.09,66.2ZM50.46,85.28l-4.06-16,4.06-1.41L53.34,63l6.15,3.66Zm-25.07-10L34,60.86l4.84,2.29.21.09,4.3-1.15,1.59,6.35ZM14.79,50.4l16-4,1.41,4.06L37,53.3l-3.55,6Zm10-25L39,33.8l-1.88,3.86,1.38,5.46-6.93,1.76ZM49.64,14.73l4,16-4.06,1.41L46.75,37l-6.14-3.66Zm25.07,10L66.25,38.91,62.38,37l-5.46,1.39-1.75-6.93ZM60.19,51.44l2.21-3.73,4.45,2.65,1.3,3.78L61.33,56Zm-3.42,5.73,2.52-4.23.84,3.33Zm-6,2.88,3.36-.9-1.28,2.14Zm-1.67.44,3.12,1.86-2.61,4.5-3.55,1.22-1.59-6.29ZM43.26,57l4.4,2.65-3.47.93Zm-1.5-.9L43,60.86l-3.84,1.07-4.53-2.14,3.5-5.86Zm-1.5-5.93,1.07,4.24-2.66-1.59Zm-.43-1.69L37.62,52.2l-4.45-2.65L32,46.06l6.83-1.73ZM43,43.22,40.77,47,40,44Zm.89-1.5-4.17,1.1-1.27-5,1.63-3.36,6,3.6Zm5.94-1.5L45.59,41.3l1.59-2.66Zm1.69-.43-3.72-2.22,2.65-4.45L54,31.93l1.73,6.83ZM56.79,43,53,40.73l3-.8Zm1.5.89-1.06-4.2,5-1.27L65.62,40l-3.61,6Zm.61,7.43-3.8,6.35-5.75,1.53L42.9,55.35l-1.68-6.64,3.51-5.88,6.64-1.69,5.81,3.51Zm-.18-5.74,2.66,1.59-1.59,2.66ZM61.66,62.2,60,65.57l-6-3.64,1.89-3.18,4.58-1.22ZM85.35,49.6l-16,4.26-1.48-4.27-4.84-2.88,3.64-6.15ZM69.8,55l19-5.08L67.37,39.49l10.13-17L54.87,30.33,50,11.14,39.54,32.68l-17-10.13,7.83,22.63L11.16,50,32.84,60.34,22.6,77.51l22.63-7.84,4.86,19.19L60.55,67.32l17,10.13Z" fill="#191919"/>
  </g>
</svg>
