<svg id="Layer_1" data-name="Layer 1" xmlns="http://www.w3.org/2000/svg" viewBox="0 0 100 100">
  <g>
    <circle cx="50" cy="50" r="50" fill="#4bfd9f"/>
    <g>
      <path d="M49.12,23.06a.84.84,0,1,0,1.68,0V19.7a.84.84,0,1,0-1.68,0Z" fill="#191919"/>
      <path d="M50,25.59a.84.84,0,0,0-.84.84V29.8a.84.84,0,1,0,1.68,0V26.43A.83.83,0,0,0,50,25.59Z" fill="#191919"/>
      <path d="M50,32.32a.84.84,0,0,0-.84.84v3.37a.84.84,0,0,0,1.68,0V33.16A.84.84,0,0,0,50,32.32Z" fill="#191919"/>
      <path d="M50,39.05a.84.84,0,0,0-.84.85v3.36a.84.84,0,0,0,1.68,0V39.9A.84.84,0,0,0,50,39.05Z" fill="#191919"/>
      <path d="M49.12,80.64v4.93L46,83.76Zm0-20.2v2.67L35.06,77.18a.75.75,0,0,0-.13.18l-1.73-1Zm-7-13.22a.78.78,0,0,0,.23-.64l2,1.13h0L22.43,69.6a.91.91,0,0,0-.21.4l-1.81-1ZM18.82,60.44,36.24,43l1.69,1L18.82,63.11Zm0-5L32.88,41.33a.81.81,0,0,0,.12-.18l1.73,1L18.82,58.06Zm0-5L29.51,39.65a.78.78,0,0,0,.21-.4l1.81,1L18.82,53Zm0-5L26.15,38a.85.85,0,0,0,.23-.65l2,1.13h0L18.82,48Zm0-5,4.62-4.63,1.74,1a.54.54,0,0,0-.22.15l-6.14,6.13ZM50,17.17a.84.84,0,0,0,.84-.84V14.42L80.26,31.48,50.8,48.54V46.63a.84.84,0,0,0-1.68,0v1.91L19.66,31.48,49.12,14.42v1.91A.84.84,0,0,0,50,17.17ZM18.82,32.94l3.12,1.8-3.12,3.12Zm0,35.09V65.49L39.43,44.87l1.74,1A.86.86,0,0,0,41,46L19.06,67.91a1.22,1.22,0,0,0-.12.19Zm4.79,2.77h0L45.5,48.91a.78.78,0,0,0,.21-.4l1.81,1.05L25.3,71.78Zm3.2,1.85L48.87,50.59A.62.62,0,0,0,49,50.4l.13.08V53L28.5,73.63ZM30,74.5,49.12,55.4v2.66L31.7,75.48Zm6.39,3.71L49.12,65.5v2.66l-11,11Zm3.2,1.85,9.52-9.52v2.67L41.29,81Zm3.2,1.85,6.32-6.32v2.67l-4.63,4.63ZM79.53,66.1a.84.84,0,0,0-.84,1.46l1.61.93L50.8,85.57V51.45l1.65,1a.94.94,0,0,0,.42.11.82.82,0,0,0,.73-.42A.83.83,0,0,0,53.3,51l-1.66-1L81.1,32.94V67Zm3.25,2.07V31.48a.17.17,0,0,0,0-.07v-.07a.66.66,0,0,0-.09-.28.7.7,0,0,0-.2-.22l-.06-.05,0,0-32-18.51-.06,0-.08,0a.8.8,0,0,0-.57,0l-.08,0s0,0-.06,0l-32,18.51-.05,0s-.05,0-.06.05a.7.7,0,0,0-.2.22.66.66,0,0,0-.09.28.2.2,0,0,0,0,.07s0,.05,0,.07v37a.85.85,0,0,0,.43.73l20,11.56a.47.47,0,0,0,.06.09.85.85,0,0,0,.49.22l11.47,6.65.06,0,.07,0a1,1,0,0,0,.29.06.72.72,0,0,0,.29-.06l.07,0,.07,0L82.21,69.33a.85.85,0,0,0,.55-.4.82.82,0,0,0,0-.76Z" fill="#191919"/>
      <path d="M76.62,64.42l-2.91-1.69a.85.85,0,0,0-1.15.31.84.84,0,0,0,.3,1.15l2.92,1.69a.91.91,0,0,0,.42.11.84.84,0,0,0,.73-.42.84.84,0,0,0-.31-1.15Z" fill="#191919"/>
      <path d="M70.79,61.05l-2.92-1.68a.83.83,0,0,0-1.15.31A.85.85,0,0,0,67,60.83L70,62.51a.78.78,0,0,0,.42.11.84.84,0,0,0,.42-1.57Z" fill="#191919"/>
      <path d="M65,57.68,62,56a.84.84,0,0,0-.84,1.46l2.92,1.68a.78.78,0,0,0,.42.11A.84.84,0,0,0,65,57.68Z" fill="#191919"/>
      <path d="M59.13,54.32l-2.92-1.69a.84.84,0,1,0-.84,1.46l2.92,1.69a.88.88,0,0,0,.42.11.84.84,0,0,0,.42-1.57Z" fill="#191919"/>
    </g>
  </g>
</svg>
